<svg width="96" height="96" viewBox="0 0 96 96" fill="none" xmlns="http://www.w3.org/2000/svg">
<path d="M74.6667 96H21.3333C18.5044 96 15.7912 94.9886 13.7909 93.1882C11.7905 91.3879 10.6667 88.9461 10.6667 86.4V24H0V14.4H21.3333V9.6C21.3333 7.05392 22.4571 4.61212 24.4575 2.81177C26.4579 1.01143 29.171 0 32 0H64C66.829 0 69.5421 1.01143 71.5425 2.81177C73.5429 4.61212 74.6667 7.05392 74.6667 9.6V14.4H96V24H85.3333V86.4C85.3333 88.9461 84.2095 91.3879 82.2091 93.1882C80.2088 94.9886 77.4956 96 74.6667 96ZM21.3333 24V86.4H74.6667V24H21.3333ZM32 9.6V14.4H64V9.6H32ZM64 76.8H53.3333V33.6H64V76.8ZM42.6667 76.8H32V33.6H42.6667V76.8Z" fill="#FCFCFC"/>
</svg>
