<svg width="423" height="234" viewBox="0 0 423 234" fill="none" xmlns="http://www.w3.org/2000/svg">
<path d="M414.946 166.487C417.095 166.487 418.952 167.361 420.515 169.109C422.079 170.857 422.86 172.933 422.86 175.336V225.151C422.86 227.555 422.079 229.63 420.515 231.378C418.952 233.126 417.095 234 414.946 234H7.91473C5.76505 234 3.90851 233.126 2.34511 231.378C0.781702 229.63 0 227.555 0 225.151V191.067C0 183.202 2.44282 177.303 7.32845 173.37C48.7586 139.941 73.8708 118.966 82.665 110.445C96.5402 96.8992 103.478 85.9748 103.478 77.6723C103.478 70.8992 101.914 66.8571 98.7876 65.5462C97.2242 64.8908 95.4653 64.563 93.5111 64.563C91.7522 64.563 90.1888 64.7815 88.8209 65.2185C87.6483 65.437 86.5735 65.874 85.5963 66.5294C84.6192 66.9664 83.7398 67.6219 82.9581 68.4958C82.1764 69.3697 81.4924 70.1345 80.9061 70.7899C80.5153 71.4454 80.0267 72.4286 79.4404 73.7395C78.8542 75.0504 78.4633 76.0336 78.2679 76.6891C77.2908 79.3109 76.8022 80.8403 76.8022 81.2773C75.2388 86.3025 71.3303 88.8151 65.0767 88.8151H9.9667C8.20787 88.8151 6.64447 88.1597 5.27649 86.8487C4.10393 85.3193 3.51766 83.5714 3.51766 81.605C3.51766 57.3529 11.921 37.6891 28.7275 22.6134C45.7296 7.53781 67.3241 0 93.5111 0C119.894 0 140.902 6.55462 156.536 19.6639C172.365 32.5546 180.28 50.4706 180.28 73.4118C180.28 90.6723 174.906 106.294 164.157 120.277C153.409 134.261 136.993 149.664 114.91 166.487H414.946Z" fill="#5D5D81"/>
<path d="M199.065 0H249.342C266.333 0 280.299 4.74942 291.239 14.2483C302.295 23.617 307.823 36.7592 307.823 53.675V82.7571C307.823 100.454 302.47 113.856 291.763 122.965C281.056 132.073 266.973 136.627 249.516 136.627H199.065C197.785 136.627 196.679 136.107 195.748 135.066C194.817 134.025 194.351 132.789 194.351 131.357V5.26991C194.351 3.83858 194.817 2.60243 195.748 1.56146C196.679 0.520484 197.785 0 199.065 0ZM237.994 38.0605V98.5668H249.342C253.299 98.5668 256.441 97.2656 258.768 94.6632C261.212 91.9306 262.435 87.9619 262.435 82.7571V53.675C262.435 43.2653 258.07 38.0605 249.342 38.0605H237.994Z" fill="#5D5D81"/>
<path d="M321.748 92.5162V79.2438C321.748 64.41 326.462 53.0244 335.888 45.087C345.315 37.1496 357.477 33.1809 372.374 33.1809C387.271 33.1809 399.433 37.1496 408.86 45.087C418.287 53.0244 423 64.41 423 79.2438V92.5162C423 107.48 418.461 118.931 409.383 126.868C400.306 134.675 387.969 138.579 372.374 138.579C356.779 138.579 344.443 134.675 335.365 126.868C326.287 118.931 321.748 107.48 321.748 92.5162ZM380.23 94.0776V77.6824C380.23 72.7377 379.648 69.2895 378.484 67.3377C377.32 65.3859 375.284 64.41 372.374 64.41C369.465 64.41 367.428 65.3859 366.264 67.3377C365.1 69.2895 364.518 72.7377 364.518 77.6824V94.0776C364.518 99.2825 365.1 102.796 366.264 104.617C367.428 106.439 369.465 107.35 372.374 107.35C375.284 107.35 377.32 106.374 378.484 104.422C379.648 102.47 380.23 99.0222 380.23 94.0776Z" fill="#5D5D81"/>
</svg>
